<svg width="10" height="13" viewBox="0 0 10 13" fill="none" xmlns="http://www.w3.org/2000/svg">
<path d="M1.09169 12.0417C0.800021 12.0417 0.552104 11.9396 0.347937 11.7354C0.14377 11.5313 0.041687 11.2834 0.041687 10.9917V3.17502C0.041687 2.88335 0.14377 2.63544 0.347937 2.43127C0.552104 2.2271 0.800021 2.12502 1.09169 2.12502H1.90835V0.885437H2.79794V2.12502H7.21669V0.885437H8.09169V2.12502H8.90835C9.20002 2.12502 9.44794 2.2271 9.6521 2.43127C9.85627 2.63544 9.95835 2.88335 9.95835 3.17502V10.9917C9.95835 11.2834 9.85627 11.5313 9.6521 11.7354C9.44794 11.9396 9.20002 12.0417 8.90835 12.0417H1.09169ZM1.09169 11.1667H8.90835C8.94724 11.1667 8.98613 11.1472 9.02502 11.1084C9.06391 11.0695 9.08335 11.0306 9.08335 10.9917V5.50835H0.916687V10.9917C0.916687 11.0306 0.936131 11.0695 0.97502 11.1084C1.01391 11.1472 1.0528 11.1667 1.09169 11.1667ZM0.916687 4.63335H9.08335V3.17502C9.08335 3.13613 9.06391 3.09724 9.02502 3.05835C8.98613 3.01946 8.94724 3.00002 8.90835 3.00002H1.09169C1.0528 3.00002 1.01391 3.01946 0.97502 3.05835C0.936131 3.09724 0.916687 3.13613 0.916687 3.17502V4.63335Z" fill="#B1B3C5"/>
</svg>
