<svg width="22" height="16" viewBox="0 0 22 16" fill="none" xmlns="http://www.w3.org/2000/svg">
<path d="M3.58126 8.97787H14.9118C15.4519 8.97787 15.8898 8.53999 15.8898 7.99989C15.8898 7.45978 15.4519 7.02191 14.9118 7.02191H3.58126L4.84572 5.75752C5.22765 5.37565 5.22765 4.75639 4.84572 4.37446C4.46391 3.99253 3.84466 3.99253 3.46266 4.37446L0.528926 7.3082C0.506237 7.33082 0.484852 7.35449 0.46451 7.37926C0.459555 7.38533 0.455317 7.39185 0.450492 7.39804C0.435562 7.41701 0.420892 7.43605 0.407461 7.45613C0.40355 7.462 0.400355 7.4682 0.396508 7.47413C0.383077 7.49512 0.369907 7.51631 0.358041 7.53841C0.355759 7.54278 0.353868 7.54741 0.351586 7.55178C0.339264 7.57571 0.327398 7.59996 0.317031 7.625C0.315727 7.62806 0.314814 7.63132 0.313576 7.63445C0.302948 7.66079 0.293103 7.68746 0.284758 7.71491C0.28365 7.71836 0.283063 7.72195 0.282085 7.72547C0.274196 7.75239 0.266959 7.77958 0.261417 7.80742C0.259787 7.8157 0.25907 7.82424 0.25757 7.83259C0.253528 7.85567 0.249486 7.87875 0.247204 7.90229C0.243878 7.93456 0.242249 7.96716 0.242249 7.99989C0.242249 8.03262 0.243878 8.06522 0.247204 8.09756C0.249486 8.12142 0.253658 8.14469 0.257635 8.16797C0.25907 8.17605 0.259787 8.18433 0.261417 8.19235C0.267024 8.22045 0.274196 8.2479 0.28215 8.27509C0.283128 8.27829 0.283715 8.28168 0.284693 8.28487C0.293103 8.31245 0.302948 8.33938 0.313706 8.36598C0.31488 8.36885 0.315727 8.37191 0.316966 8.37478C0.327398 8.40001 0.339329 8.4244 0.351782 8.44845C0.353934 8.45269 0.355759 8.45713 0.357976 8.46136C0.369972 8.4836 0.383208 8.50498 0.396834 8.52617C0.400485 8.53191 0.403615 8.53797 0.407396 8.54358C0.420892 8.56372 0.435692 8.58289 0.450558 8.60193C0.455317 8.60806 0.459555 8.61451 0.464445 8.62051C0.484852 8.64522 0.506237 8.66895 0.528861 8.69158L3.4626 11.6253C3.65356 11.8163 3.90386 11.9118 4.15416 11.9118C4.40445 11.9118 4.65475 11.8163 4.84565 11.6253C5.22758 11.2434 5.22758 10.6242 4.84565 10.2423L3.58126 8.97787Z" fill="#CC0707"/>
<path d="M13.7578 0C11.0883 0 8.60467 1.32431 7.1139 3.54243C6.81269 3.99067 6.93187 4.59832 7.38011 4.8996C7.82841 5.20082 8.436 5.08176 8.73735 4.63339C9.86404 2.95682 11.7408 1.95589 13.7578 1.95589C17.0904 1.95595 19.8018 4.66723 19.8018 7.99992C19.8018 11.3326 17.0904 14.0439 13.7578 14.0439C11.7468 14.0439 9.87304 13.0475 8.7455 11.3785C8.44304 10.9309 7.83526 10.8133 7.38761 11.1156C6.94008 11.418 6.82234 12.0259 7.12473 12.4734C8.61653 14.6816 11.0962 15.9998 13.7578 15.9998C18.169 15.9998 21.7577 12.4111 21.7577 7.99992C21.7577 3.58872 18.169 0 13.7578 0Z" fill="#CC0707"/>
</svg>
